# xmcd CD database file
#
# Track frame offsets:
#	150
#	45213
#	59116
#
# Disc length: 1165 seconds
#
# Revision: 1
# Processed by: cddbd v1.5.2PL0 Copyright (c) Steve Scherf et al.
# Submitted via: CDex 1.77
#
DISCID=21048b03
DTITLE=Miles Davis - Blue Period
DYEAR=0
DGENRE=Jazz
TTITLE0=Bluing 
TTITLE1=Blue Room 
TTITLE2=Out Of The Blue 
EXTD=YEAR: 0
EXTT0=
EXTT1=
EXTT2=
PLAYORDER=
